<?xml version="1.0" encoding="UTF-8" standalone="no"?><svg xmlns="http://www.w3.org/2000/svg" xmlns:xlink="http://www.w3.org/1999/xlink" contentScriptType="application/ecmascript" contentStyleType="text/css" height="535px" preserveAspectRatio="none" style="width:169px;height:535px;" version="1.1" viewBox="0 0 169 535" width="169px" zoomAndPan="magnify"><defs><filter height="300%" id="fsj19myo1s0g9" width="300%" x="-1" y="-1"><feGaussianBlur result="blurOut" stdDeviation="2.0"/><feColorMatrix in="blurOut" result="blurOut2" type="matrix" values="0 0 0 0 0 0 0 0 0 0 0 0 0 0 0 0 0 0 .4 0"/><feOffset dx="4.0" dy="4.0" in="blurOut2" result="blurOut3"/><feBlend in="SourceGraphic" in2="blurOut3" mode="normal"/></filter></defs><g><text fill="#000000" font-family="sans-serif" font-size="18" lengthAdjust="spacingAndGlyphs" textLength="160" x="2" y="16.708">CTeacher.Update</text><ellipse cx="111.4527" cy="38.8614" fill="#FEFECE" filter="url(#fsj19myo1s0g9)" rx="14.1353" ry="11.9083" style="stroke: #A80036; stroke-width: 1.5;"/><text fill="#000000" font-family="sans-serif" font-size="14" lengthAdjust="spacingAndGlyphs" textLength="9" x="106.9527" y="43.5098">1</text><ellipse cx="111.2602" cy="139.7074" fill="#FEFECE" filter="url(#fsj19myo1s0g9)" rx="13.9428" ry="11.7543" style="stroke: #A80036; stroke-width: 1.5;"/><text fill="#000000" font-family="sans-serif" font-size="14" lengthAdjust="spacingAndGlyphs" textLength="8" x="107.2602" y="144.3558">2</text><ellipse cx="77.4527" cy="240.8614" fill="#FEFECE" filter="url(#fsj19myo1s0g9)" rx="14.1353" ry="11.9083" style="stroke: #A80036; stroke-width: 1.5;"/><text fill="#000000" font-family="sans-serif" font-size="14" lengthAdjust="spacingAndGlyphs" textLength="9" x="72.9527" y="245.5098">3</text><ellipse cx="85.4527" cy="511.8614" fill="#FEFECE" filter="url(#fsj19myo1s0g9)" rx="14.1353" ry="11.9083" style="stroke: #A80036; stroke-width: 1.5;"/><text fill="#000000" font-family="sans-serif" font-size="14" lengthAdjust="spacingAndGlyphs" textLength="9" x="80.9527" y="516.5098">6</text><ellipse cx="77.2602" cy="341.7074" fill="#FEFECE" filter="url(#fsj19myo1s0g9)" rx="13.9428" ry="11.7543" style="stroke: #A80036; stroke-width: 1.5;"/><text fill="#000000" font-family="sans-serif" font-size="14" lengthAdjust="spacingAndGlyphs" textLength="8" x="73.2602" y="346.3558">4</text><ellipse cx="85.4527" cy="426.8614" fill="#FEFECE" filter="url(#fsj19myo1s0g9)" rx="14.1353" ry="11.9083" style="stroke: #A80036; stroke-width: 1.5;"/><text fill="#000000" font-family="sans-serif" font-size="14" lengthAdjust="spacingAndGlyphs" textLength="9" x="80.9527" y="431.5098">5</text><!--MD5=[0ba0d8a0fd0e641c23f69743a446dfe6]
link 1 to 2--><path d="M111.3174,51.3101 C111.3174,68.8401 111.3174,102.5651 111.3174,122.6831 " fill="none" id="1-to-2" style="stroke: #A80036; stroke-width: 1.0;"/><polygon fill="#A80036" points="111.3174,127.7291,115.3174,118.7291,111.3174,122.7291,107.3174,118.7291,111.3174,127.7291" style="stroke: #A80036; stroke-width: 1.0;"/><text fill="#000000" font-family="sans-serif" font-size="13" lengthAdjust="spacingAndGlyphs" textLength="17" x="112.3174" y="94.02">R1</text><!--MD5=[eeb69082328d10abd3b14fdeede0d8a3]
link 2 to 3--><path d="M99.9616,147.4001 C89.02,154.3361 73.15,166.4851 66.3174,181.9531 C60.2301,195.7341 64.7606,212.8131 69.7223,224.8581 " fill="none" id="2-to-3" style="stroke: #A80036; stroke-width: 1.0;"/><polygon fill="#A80036" points="71.8454,229.6881,71.8841,219.8393,69.8326,225.1111,64.5609,223.0597,71.8454,229.6881" style="stroke: #A80036; stroke-width: 1.0;"/><text fill="#000000" font-family="sans-serif" font-size="13" lengthAdjust="spacingAndGlyphs" textLength="17" x="67.3174" y="195.02">R2</text><!--MD5=[28551aba8907995ce56fa3e4ac644625]
link 3 to 2--><path d="M81.0329,229.1341 C87.085,211.5121 99.0913,176.5531 106.0305,156.3471 " fill="none" id="3-to-2" style="stroke: #A80036; stroke-width: 1.0;"/><polygon fill="#A80036" points="107.6788,151.5481,100.972,158.7606,106.0545,156.2769,108.5381,161.3594,107.6788,151.5481" style="stroke: #A80036; stroke-width: 1.0;"/><!--MD5=[8d5e64f07a3a026530162c78b23a3473]
link 2 to 6--><path d="M118.2725,150.5221 C129.97,167.5881 152.3172,204.7931 152.3172,239.9531 C152.3172,239.9531 152.3172,239.9531 152.3172,427.9531 C152.3172,460.6646 120.4185,487.7507 100.6413,501.4004 " fill="none" id="2-to-6" style="stroke: #A80036; stroke-width: 1.0;"/><polygon fill="#A80036" points="96.3811,504.2634,106.0821,502.5633,100.531,501.4745,101.6198,495.9234,96.3811,504.2634" style="stroke: #A80036; stroke-width: 1.0;"/><!--MD5=[b1f22f0c97e7f2b556a5a2d67c42ac53]
link 3 to 4--><path d="M77.3174,253.3101 C77.3174,270.8401 77.3174,304.5651 77.3174,324.6831 " fill="none" id="3-to-4" style="stroke: #A80036; stroke-width: 1.0;"/><polygon fill="#A80036" points="77.3174,329.7291,81.3174,320.7291,77.3174,324.7291,73.3174,320.7291,77.3174,329.7291" style="stroke: #A80036; stroke-width: 1.0;"/><text fill="#000000" font-family="sans-serif" font-size="13" lengthAdjust="spacingAndGlyphs" textLength="17" x="78.3174" y="296.02">R3</text><!--MD5=[fb7a877824a531edc27ce1774c90edf7]
link 4 to 5--><path d="M78.3963,354.1471 C79.7758,368.4591 82.1743,393.3441 83.754,409.7321 " fill="none" id="4-to-5" style="stroke: #A80036; stroke-width: 1.0;"/><polygon fill="#A80036" points="84.2556,414.9371,87.3731,405.5947,83.7756,409.9602,79.41,406.3627,84.2556,414.9371" style="stroke: #A80036; stroke-width: 1.0;"/><!--MD5=[f13c3ab577a688343a149026a232f91b]
link 4 to 6--><path d="M68.6047,351.6881 C53.1876,368.2471 23.6828,405.5411 34.3174,438.9531 C41.8118,462.4993 60.1115,484.9596 72.6232,498.3533 " fill="none" id="4-to-6" style="stroke: #A80036; stroke-width: 1.0;"/><polygon fill="#A80036" points="76.302,502.21,72.9843,492.9368,72.8508,498.592,67.1956,498.4586,76.302,502.21" style="stroke: #A80036; stroke-width: 1.0;"/><text fill="#000000" font-family="sans-serif" font-size="13" lengthAdjust="spacingAndGlyphs" textLength="17" x="35.3174" y="431.52">R4</text><!--MD5=[deed8cab30c10dbe2727e65517d240f0]
link 5 to 6--><path d="M85.3174,439.1468 C85.3174,453.4586 85.3174,478.3437 85.3174,494.7321 " fill="none" id="5-to-6" style="stroke: #A80036; stroke-width: 1.0;"/><polygon fill="#A80036" points="85.3174,499.9367,89.3174,490.9367,85.3174,494.9367,81.3174,490.9367,85.3174,499.9367" style="stroke: #A80036; stroke-width: 1.0;"/><!--MD5=[57718909bb8813088738894cc7d22b58]
@startuml
Title CTeacher.Update
(1)- ->(2):R1
(2)- ->(3):R2
(2)- ->(6)
(3)- ->(2)
(3)- ->(4):R3
(4)- ->(5)
(4)- ->(6):R4
(5)- ->(6)
@enduml

PlantUML version 1.2020.19beta4(Unknown compile time)
(GPL source distribution)
Java Runtime: Java(TM) SE Runtime Environment
JVM: Java HotSpot(TM) 64-Bit Server VM
Default Encoding: UTF-8
Language: en
Country: US
--></g></svg>